PathFileType	4	(X,Y,Z)	../Outputs/S01/20200207/Statics/S01_static.trc
DataRate	CameraRate	NumFrames	NumMarkers	Units	OrigDataRate	OrigDataStartFrame	OrigNumFrames
100	100	9	39	m	100	49	388
Frame#	Time	L.ASIS			L.Acromium			L.Ankle.Lat			L.Ankle.Med			L.Heel			L.Knee.Lat			L.Knee.Med			L.Midfoot.Lat			L.Midfoot.Sup			L.Shank.Front			L.Shank.Rear			L.Shank.Upper			L.Thigh.Front			L.Thigh.Rear			L.Thigh.Upper			L.Toe.Lat			L.Toe.Med			L.Toe.Tip			R.ASIS			R.Acromium			R.Ankle.Lat			R.Ankle.Med			R.Heel			R.Knee.Lat			R.Knee.Med			R.Midfoot.Lat			R.Midfoot.Sup			R.Shank.Front			R.Shank.Rear			R.Shank.Upper			R.Thigh.Front			R.Thigh.Rear			R.Thigh.Upper			R.Toe.Lat			R.Toe.Med			R.Toe.Tip			Sternum			Top.Head			V.Sacral
		X1	Y1	Z1	X2	Y2	Z2	X3	Y3	Z3	X4	Y4	Z4	X5	Y5	Z5	X6	Y6	Z6	X7	Y7	Z7	X8	Y8	Z8	X9	Y9	Z9	X10	Y10	Z10	X11	Y11	Z11	X12	Y12	Z12	X13	Y13	Z13	X14	Y14	Z14	X15	Y15	Z15	X16	Y16	Z16	X17	Y17	Z17	X18	Y18	Z18	X19	Y19	Z19	X20	Y20	Z20	X21	Y21	Z21	X22	Y22	Z22	X23	Y23	Z23	X24	Y24	Z24	X25	Y25	Z25	X26	Y26	Z26	X27	Y27	Z27	X28	Y28	Z28	X29	Y29	Z29	X30	Y30	Z30	X31	Y31	Z31	X32	Y32	Z32	X33	Y33	Z33	X34	Y34	Z34	X35	Y35	Z35	X36	Y36	Z36	X37	Y37	Z37	X38	Y38	Z38	X39	Y39	Z39

48	0.48	0.380596	0.908277	0.187478	0.378564	1.408072	0.327095	0.270579	0.074429	0.334194	0.345639	0.066092	0.286249	0.327146	0.037339	0.369802	0.32593	0.496554	0.330355	0.456361	0.464135	0.297528	0.229954	0.029858	0.280629	0.313514	0.031347	0.222113	0.346871	0.373354	0.282815	0.289441	0.33659	0.368663	0.316553	0.425762	0.32426	0.373124	0.625708	0.182378	0.310442	0.604994	0.281298	0.310192	0.693612	0.277457	0.204948	0.025617	0.23989	0.29797	0.030059	0.17562	0.236585	0.03653	0.185744	0.642082	0.914616	0.197601	0.649413	1.401673	0.323202	0.749927	0.076852	0.343052	0.671386	0.081043	0.299193	0.686719	0.042079	0.380919	0.695018	0.476902	0.323639	0.565273	0.452094	0.287451	0.783418	0.032659	0.294328	0.70759	0.034322	0.232992	0.684472	0.365781	0.281858	0.729658	0.335094	0.371687	0.699171	0.423844	0.320302	0.644335	0.626707	0.180801	0.707604	0.61994	0.275789	0.705085	0.696471	0.285241	0.811969	0.025587	0.253467	0.722959	0.02519	0.18521	0.783924	0.033779	0.200003	0.503358	1.262201	0.162917	0.539331	1.690903	0.272472	0.513003	0.918646	0.379518
49	0.49	0.38065	0.908295	0.187294	0.378536	1.408072	0.326931	0.270598	0.074438	0.33419	0.345651	0.066091	0.286232	0.32717	0.03735	0.369792	0.325969	0.496544	0.330276	0.456333	0.464171	0.297494	0.229942	0.029922	0.280615	0.313513	0.031342	0.222106	0.346887	0.373349	0.282765	0.289463	0.336596	0.36862	0.316573	0.425762	0.3242	0.373147	0.625684	0.182296	0.310451	0.604994	0.281196	0.310212	0.693595	0.277364	0.204953	0.025602	0.239893	0.297965	0.030057	0.175613	0.236595	0.036522	0.185739	0.642099	0.914585	0.197494	0.649388	1.401692	0.323016	0.749924	0.076855	0.343051	0.671386	0.08104	0.29919	0.686713	0.042082	0.380913	0.695029	0.476901	0.323606	0.56528	0.452087	0.287435	0.783416	0.03266	0.294328	0.707584	0.034315	0.23299	0.68448	0.365782	0.281833	0.729671	0.335099	0.371664	0.699183	0.423847	0.320275	0.644351	0.626673	0.180742	0.707584	0.619919	0.275744	0.705099	0.696461	0.285177	0.811976	0.025604	0.253465	0.722962	0.025185	0.185207	0.783926	0.033774	0.200001	0.503336	1.262174	0.162773	0.539239	1.690913	0.272264	0.512997	0.918651	0.379383
50	0.5	0.380695	0.9083	0.187122	0.37851	1.408074	0.326768	0.270618	0.074447	0.334186	0.345664	0.06609	0.286215	0.327194	0.037362	0.369781	0.326009	0.496538	0.330196	0.456322	0.4642	0.297443	0.229946	0.029933	0.280611	0.313511	0.031339	0.222099	0.346905	0.373345	0.282713	0.289488	0.336604	0.368576	0.316596	0.425761	0.324139	0.373167	0.62566	0.18221	0.310467	0.605012	0.281082	0.310231	0.69358	0.277271	0.204958	0.025591	0.239895	0.297962	0.030056	0.175604	0.236613	0.036518	0.185732	0.642113	0.914552	0.197387	0.649363	1.401707	0.322831	0.749919	0.076859	0.34305	0.671387	0.081041	0.299185	0.686707	0.042088	0.380906	0.695041	0.476899	0.323568	0.565289	0.452082	0.287412	0.783414	0.032662	0.294327	0.707585	0.034317	0.232983	0.684489	0.365782	0.281805	0.729683	0.335104	0.371638	0.699196	0.423848	0.320245	0.64437	0.62664	0.180679	0.707549	0.619894	0.2757	0.705115	0.69645	0.285108	0.811977	0.025606	0.253465	0.72296	0.025185	0.185205	0.783927	0.033772	0.199999	0.503315	1.26214	0.162635	0.539161	1.690924	0.272066	0.513036	0.918679	0.37925
51	0.51	0.380732	0.908296	0.18696	0.378485	1.408076	0.326605	0.27064	0.074458	0.33418	0.345679	0.066087	0.286198	0.327219	0.037373	0.369769	0.326051	0.496537	0.330117	0.456332	0.464207	0.297377	0.229956	0.029909	0.280613	0.313511	0.031336	0.222091	0.346926	0.373341	0.282658	0.289517	0.336618	0.368532	0.316623	0.42576	0.324077	0.373186	0.625637	0.182123	0.310496	0.605049	0.280956	0.310249	0.693565	0.277177	0.204962	0.025583	0.239897	0.29796	0.030056	0.175596	0.236641	0.036517	0.185722	0.642122	0.914515	0.197281	0.649337	1.401718	0.32265	0.749915	0.076864	0.343048	0.671387	0.081043	0.299177	0.686701	0.042098	0.380898	0.695055	0.476899	0.323526	0.5653	0.452077	0.287385	0.783411	0.032662	0.294325	0.707591	0.034322	0.232976	0.684499	0.365782	0.281775	0.729693	0.335109	0.37161	0.699208	0.423849	0.320213	0.644392	0.626608	0.180611	0.70751	0.619867	0.275655	0.705131	0.69644	0.285036	0.811971	0.025592	0.253468	0.722954	0.025191	0.185203	0.783928	0.033772	0.199998	0.503294	1.262098	0.162502	0.539084	1.690938	0.271877	0.513126	0.918731	0.379116
52	0.52	0.380763	0.908285	0.186804	0.378462	1.408078	0.326442	0.270663	0.074471	0.334173	0.345692	0.066083	0.286182	0.327245	0.037385	0.369756	0.326095	0.496537	0.330036	0.456361	0.464192	0.297299	0.229956	0.029902	0.280611	0.313512	0.031333	0.222082	0.346949	0.373337	0.282601	0.28955	0.336634	0.368487	0.316654	0.425759	0.324013	0.373204	0.625614	0.182033	0.310527	0.60508	0.280835	0.310267	0.693546	0.277082	0.204965	0.025579	0.239897	0.297957	0.030055	0.175588	0.236683	0.036521	0.185706	0.642126	0.914471	0.197175	0.649308	1.401729	0.322473	0.74991	0.076868	0.343046	0.671387	0.081046	0.299168	0.686695	0.04211	0.38089	0.695068	0.476899	0.32348	0.565312	0.452073	0.287353	0.783409	0.032663	0.294323	0.707594	0.034325	0.232969	0.684511	0.365782	0.281741	0.729703	0.335115	0.37158	0.699221	0.423848	0.320178	0.644415	0.626576	0.18054	0.707489	0.619845	0.275604	0.705149	0.696429	0.284959	0.811962	0.02557	0.253473	0.722942	0.025203	0.185201	0.78393	0.033774	0.199996	0.503275	1.26205	0.162373	0.539004	1.690953	0.271693	0.513246	0.918798	0.37898
53	0.53	0.380788	0.908265	0.186651	0.37844	1.408079	0.326276	0.270685	0.074485	0.334165	0.345705	0.066077	0.286166	0.327272	0.037395	0.369743	0.326141	0.496537	0.329954	0.456409	0.464155	0.29721	0.229945	0.029925	0.280602	0.313515	0.031331	0.222072	0.346976	0.373334	0.282542	0.289584	0.336651	0.368442	0.316686	0.42576	0.323946	0.373224	0.625591	0.181941	0.310552	0.605089	0.280726	0.310283	0.69352	0.276984	0.204967	0.025579	0.239895	0.297953	0.030053	0.17558	0.236744	0.036531	0.185683	0.642123	0.914418	0.197071	0.649274	1.401739	0.322301	0.749905	0.076873	0.343044	0.671386	0.081047	0.299158	0.686686	0.042123	0.380879	0.695082	0.4769	0.32343	0.565324	0.452068	0.287319	0.783407	0.032664	0.294322	0.707595	0.034328	0.232962	0.684523	0.365781	0.281706	0.729711	0.335121	0.371549	0.699233	0.423847	0.320141	0.644441	0.626543	0.180465	0.707483	0.619826	0.275546	0.705168	0.696419	0.284878	0.811957	0.025555	0.253475	0.722923	0.025221	0.185199	0.783932	0.033776	0.199993	0.503256	1.261995	0.162246	0.538917	1.690969	0.27151	0.513353	0.918858	0.378841
54	0.54	0.380806	0.908237	0.186501	0.378419	1.408077	0.326108	0.270706	0.074502	0.334156	0.345717	0.066069	0.28615	0.327299	0.037405	0.369729	0.326187	0.496535	0.32987	0.456471	0.464108	0.29711	0.22994	0.029946	0.280593	0.313519	0.031329	0.22206	0.347005	0.37333	0.282481	0.289619	0.336667	0.368396	0.31672	0.425763	0.323877	0.373246	0.625567	0.181845	0.310573	0.605079	0.280627	0.310296	0.693483	0.276886	0.204969	0.02558	0.239891	0.297949	0.030052	0.175571	0.236829	0.036548	0.185649	0.64211	0.914355	0.196967	0.649238	1.401749	0.322131	0.7499	0.076876	0.343041	0.671384	0.081046	0.299147	0.686674	0.042136	0.380866	0.695099	0.476905	0.323375	0.565335	0.452064	0.287281	0.783405	0.032665	0.294322	0.707592	0.034329	0.232956	0.684535	0.365779	0.281668	0.729718	0.335128	0.371515	0.699245	0.423847	0.320101	0.644467	0.626509	0.180387	0.707475	0.619808	0.275487	0.705189	0.696409	0.284793	0.811958	0.025554	0.253475	0.722891	0.025244	0.185198	0.783935	0.033776	0.199991	0.50324	1.261938	0.162119	0.53882	1.690983	0.271324	0.513429	0.918904	0.378697
55	0.55	0.380823	0.908218	0.186338	0.378397	1.40807	0.325936	0.270726	0.074517	0.334146	0.345729	0.06606	0.286134	0.327326	0.037415	0.369714	0.326232	0.496532	0.329785	0.456543	0.464064	0.296995	0.229949	0.029948	0.280588	0.313523	0.031326	0.222047	0.347033	0.373324	0.28242	0.289654	0.336681	0.368349	0.316755	0.425764	0.323806	0.37327	0.625543	0.181745	0.310595	0.605059	0.280531	0.310305	0.693431	0.276785	0.204971	0.02558	0.239889	0.297945	0.030051	0.175563	0.236908	0.036564	0.185617	0.642087	0.914281	0.196864	0.6492	1.40176	0.321961	0.749895	0.076881	0.343038	0.671381	0.081043	0.299135	0.68666	0.042148	0.380852	0.695116	0.476913	0.323315	0.565346	0.45206	0.287239	0.783404	0.032663	0.29432	0.707588	0.034324	0.232951	0.684547	0.365776	0.281628	0.729726	0.335135	0.371479	0.699256	0.423846	0.320058	0.644495	0.626475	0.180307	0.707463	0.619789	0.275427	0.705212	0.696399	0.284703	0.811963	0.025563	0.253471	0.722845	0.025275	0.185198	0.783938	0.033773	0.199988	0.503226	1.261878	0.161991	0.53872	1.690994	0.271135	0.51348	0.918937	0.378548
56	0.56	0.380843	0.908229	0.186144	0.378375	1.408058	0.325763	0.270746	0.07453	0.334136	0.345741	0.066052	0.286117	0.327352	0.037425	0.369699	0.326277	0.496528	0.329698	0.45663	0.464019	0.296865	0.229963	0.029946	0.280585	0.313527	0.031321	0.222035	0.347061	0.373317	0.282359	0.289689	0.336693	0.368301	0.31679	0.425764	0.323736	0.373298	0.625517	0.181643	0.310619	0.60504	0.280431	0.310307	0.693359	0.276686	0.204973	0.025578	0.239889	0.297941	0.030048	0.175554	0.236904	0.036562	0.185614	0.642059	0.9142	0.196763	0.649162	1.401774	0.321788	0.74989	0.076886	0.343035	0.671378	0.081039	0.299125	0.686648	0.042156	0.380838	0.695133	0.476917	0.323254	0.565359	0.452056	0.287193	0.783402	0.032662	0.294318	0.707581	0.034314	0.232947	0.68456	0.365771	0.281585	0.729734	0.335142	0.371441	0.699267	0.423845	0.320011	0.644521	0.626441	0.180224	0.707443	0.619769	0.275366	0.705236	0.696389	0.284607	0.811975	0.025585	0.253464	0.722778	0.025314	0.1852	0.78394	0.033768	0.199987	0.503213	1.261817	0.161863	0.538623	1.690999	0.270941	0.513509	0.918959	0.378394
